<mxfile host="app.diagrams.net" modified="2020-12-02T20:02:25.065Z" agent="5.0 (Windows NT 10.0; WOW64) AppleWebKit/537.36 (KHTML, like Gecko) Chrome/86.0.4240.198 Safari/537.36" etag="6xbq7w74QJoqVwCznuwi" version="13.9.8" type="github">
  <diagram id="kgpKYQtTHZ0yAKxKKP6v" name="Page-1">
    <mxGraphModel dx="1019" dy="456" grid="1" gridSize="10" guides="1" tooltips="1" connect="1" arrows="1" fold="1" page="1" pageScale="1" pageWidth="850" pageHeight="1100" math="0" shadow="0">
      <root>
        <mxCell id="0" />
        <mxCell id="1" parent="0" />
        <mxCell id="3nuBFxr9cyL0pnOWT2aG-1" value="Store Books" style="shape=umlLifeline;perimeter=lifelinePerimeter;container=1;collapsible=0;recursiveResize=0;rounded=0;shadow=0;strokeWidth=1;" parent="1" vertex="1">
          <mxGeometry x="250" y="80" width="100" height="380" as="geometry" />
        </mxCell>
        <mxCell id="3nuBFxr9cyL0pnOWT2aG-2" value="" style="points=[];perimeter=orthogonalPerimeter;rounded=0;shadow=0;strokeWidth=1;" parent="3nuBFxr9cyL0pnOWT2aG-1" vertex="1">
          <mxGeometry x="45" y="70" width="10" height="270" as="geometry" />
        </mxCell>
        <mxCell id="3nuBFxr9cyL0pnOWT2aG-7" value="Approve Order" style="verticalAlign=bottom;endArrow=open;dashed=1;endSize=8;shadow=0;strokeWidth=1;" parent="1" target="3nuBFxr9cyL0pnOWT2aG-2" edge="1">
          <mxGeometry relative="1" as="geometry">
            <mxPoint x="275" y="236" as="targetPoint" />
            <mxPoint x="525" y="340" as="sourcePoint" />
            <Array as="points">
              <mxPoint x="350" y="340" />
            </Array>
          </mxGeometry>
        </mxCell>
        <mxCell id="8K2M4ZtMzUf1m7I5c5sV-7" value="Customer&lt;br&gt;" style="shape=umlActor;verticalLabelPosition=bottom;verticalAlign=top;html=1;outlineConnect=0;" vertex="1" parent="1">
          <mxGeometry x="120" y="60" width="30" height="60" as="geometry" />
        </mxCell>
        <mxCell id="8K2M4ZtMzUf1m7I5c5sV-12" value="" style="endArrow=none;dashed=1;html=1;dashPattern=1 3;strokeWidth=2;" edge="1" parent="1" source="8K2M4ZtMzUf1m7I5c5sV-9" target="8K2M4ZtMzUf1m7I5c5sV-7">
          <mxGeometry width="50" height="50" relative="1" as="geometry">
            <mxPoint x="135" y="380" as="sourcePoint" />
            <mxPoint x="450" y="210" as="targetPoint" />
          </mxGeometry>
        </mxCell>
        <mxCell id="8K2M4ZtMzUf1m7I5c5sV-9" value="" style="points=[];perimeter=orthogonalPerimeter;rounded=0;shadow=0;strokeWidth=1;" vertex="1" parent="1">
          <mxGeometry x="130" y="200" width="10" height="230" as="geometry" />
        </mxCell>
        <mxCell id="8K2M4ZtMzUf1m7I5c5sV-13" value="" style="endArrow=none;dashed=1;html=1;dashPattern=1 3;strokeWidth=2;" edge="1" parent="1" target="8K2M4ZtMzUf1m7I5c5sV-9">
          <mxGeometry width="50" height="50" relative="1" as="geometry">
            <mxPoint x="135" y="460" as="sourcePoint" />
            <mxPoint x="135" y="120" as="targetPoint" />
          </mxGeometry>
        </mxCell>
        <mxCell id="8K2M4ZtMzUf1m7I5c5sV-14" value="seller" style="shape=umlActor;verticalLabelPosition=bottom;verticalAlign=top;html=1;outlineConnect=0;" vertex="1" parent="1">
          <mxGeometry x="510" y="60" width="30" height="60" as="geometry" />
        </mxCell>
        <mxCell id="8K2M4ZtMzUf1m7I5c5sV-15" value="" style="endArrow=none;dashed=1;html=1;dashPattern=1 3;strokeWidth=2;" edge="1" parent="1" target="8K2M4ZtMzUf1m7I5c5sV-14">
          <mxGeometry width="50" height="50" relative="1" as="geometry">
            <mxPoint x="525" y="460" as="sourcePoint" />
            <mxPoint x="870" y="230" as="targetPoint" />
          </mxGeometry>
        </mxCell>
        <mxCell id="8K2M4ZtMzUf1m7I5c5sV-18" value="View Books" style="verticalAlign=bottom;endArrow=block;shadow=0;strokeWidth=1;" edge="1" parent="1">
          <mxGeometry relative="1" as="geometry">
            <mxPoint x="140" y="170.0000000000001" as="sourcePoint" />
            <mxPoint x="290" y="170" as="targetPoint" />
          </mxGeometry>
        </mxCell>
        <mxCell id="8K2M4ZtMzUf1m7I5c5sV-19" value="Search Book" style="verticalAlign=bottom;endArrow=block;shadow=0;strokeWidth=1;entryX=-0.41;entryY=0.48;entryDx=0;entryDy=0;entryPerimeter=0;" edge="1" parent="1">
          <mxGeometry relative="1" as="geometry">
            <mxPoint x="140" y="210.7000000000001" as="sourcePoint" />
            <mxPoint x="295.9000000000001" y="209.99999999999994" as="targetPoint" />
          </mxGeometry>
        </mxCell>
        <mxCell id="8K2M4ZtMzUf1m7I5c5sV-21" value="Search Books Result" style="verticalAlign=bottom;endArrow=open;dashed=1;endSize=8;shadow=0;strokeWidth=1;" edge="1" parent="1">
          <mxGeometry x="-0.2" relative="1" as="geometry">
            <mxPoint x="140" y="239.99999999999977" as="targetPoint" />
            <mxPoint x="290" y="240" as="sourcePoint" />
            <mxPoint as="offset" />
          </mxGeometry>
        </mxCell>
        <mxCell id="8K2M4ZtMzUf1m7I5c5sV-22" value="Order and Add book to card" style="verticalAlign=bottom;endArrow=block;shadow=0;strokeWidth=1;entryX=-0.41;entryY=0.48;entryDx=0;entryDy=0;entryPerimeter=0;" edge="1" parent="1">
          <mxGeometry relative="1" as="geometry">
            <mxPoint x="140" y="320.7000000000001" as="sourcePoint" />
            <mxPoint x="295.9000000000001" y="319.99999999999994" as="targetPoint" />
          </mxGeometry>
        </mxCell>
        <mxCell id="8K2M4ZtMzUf1m7I5c5sV-23" value="Send Order to seller" style="verticalAlign=bottom;endArrow=block;entryX=0;entryY=0;shadow=0;strokeWidth=1;" edge="1" parent="1">
          <mxGeometry relative="1" as="geometry">
            <mxPoint x="310" y="320.0000000000001" as="sourcePoint" />
            <mxPoint x="530" y="320.0000000000001" as="targetPoint" />
          </mxGeometry>
        </mxCell>
        <mxCell id="8K2M4ZtMzUf1m7I5c5sV-24" value="Send Approve Order details" style="verticalAlign=bottom;endArrow=open;dashed=1;endSize=8;shadow=0;strokeWidth=1;" edge="1" parent="1">
          <mxGeometry x="0.0667" relative="1" as="geometry">
            <mxPoint x="140" y="340" as="targetPoint" />
            <mxPoint x="290" y="340" as="sourcePoint" />
            <Array as="points">
              <mxPoint x="220" y="340" />
              <mxPoint x="185" y="340" />
            </Array>
            <mxPoint as="offset" />
          </mxGeometry>
        </mxCell>
        <mxCell id="8K2M4ZtMzUf1m7I5c5sV-25" value="Pay the order" style="verticalAlign=bottom;endArrow=block;shadow=0;strokeWidth=1;entryX=-0.41;entryY=0.48;entryDx=0;entryDy=0;entryPerimeter=0;" edge="1" parent="1">
          <mxGeometry relative="1" as="geometry">
            <mxPoint x="140" y="360.70000000000005" as="sourcePoint" />
            <mxPoint x="295.9000000000001" y="360" as="targetPoint" />
          </mxGeometry>
        </mxCell>
        <mxCell id="8K2M4ZtMzUf1m7I5c5sV-26" value="receive money" style="verticalAlign=bottom;endArrow=open;dashed=1;endSize=8;exitX=1;exitY=0.95;shadow=0;strokeWidth=1;" edge="1" parent="1">
          <mxGeometry relative="1" as="geometry">
            <mxPoint x="525" y="360" as="targetPoint" />
            <mxPoint x="310" y="360" as="sourcePoint" />
          </mxGeometry>
        </mxCell>
        <mxCell id="8K2M4ZtMzUf1m7I5c5sV-27" value="Approve receive money" style="verticalAlign=bottom;endArrow=open;dashed=1;endSize=8;shadow=0;strokeWidth=1;" edge="1" parent="1">
          <mxGeometry relative="1" as="geometry">
            <mxPoint x="310" y="390" as="targetPoint" />
            <mxPoint x="530" y="390" as="sourcePoint" />
            <Array as="points">
              <mxPoint x="355" y="390" />
            </Array>
          </mxGeometry>
        </mxCell>
        <mxCell id="8K2M4ZtMzUf1m7I5c5sV-28" value="Payment details" style="verticalAlign=bottom;endArrow=open;dashed=1;endSize=8;shadow=0;strokeWidth=1;" edge="1" parent="1">
          <mxGeometry x="-0.0667" y="20" relative="1" as="geometry">
            <mxPoint x="140" y="380" as="targetPoint" />
            <mxPoint x="290" y="380" as="sourcePoint" />
            <Array as="points">
              <mxPoint x="150" y="380" />
            </Array>
            <mxPoint as="offset" />
          </mxGeometry>
        </mxCell>
        <mxCell id="8K2M4ZtMzUf1m7I5c5sV-29" value="Select Book to view description " style="verticalAlign=bottom;endArrow=block;shadow=0;strokeWidth=1;entryX=-0.41;entryY=0.48;entryDx=0;entryDy=0;entryPerimeter=0;" edge="1" parent="1">
          <mxGeometry x="-0.102" relative="1" as="geometry">
            <mxPoint x="140" y="260.70000000000005" as="sourcePoint" />
            <mxPoint x="295.9000000000001" y="260" as="targetPoint" />
            <mxPoint as="offset" />
          </mxGeometry>
        </mxCell>
        <mxCell id="8K2M4ZtMzUf1m7I5c5sV-30" value="display description " style="verticalAlign=bottom;endArrow=open;dashed=1;endSize=8;shadow=0;strokeWidth=1;" edge="1" parent="1">
          <mxGeometry x="-0.0667" relative="1" as="geometry">
            <mxPoint x="140" y="289.9999999999998" as="targetPoint" />
            <mxPoint x="290" y="290" as="sourcePoint" />
            <mxPoint as="offset" />
          </mxGeometry>
        </mxCell>
      </root>
    </mxGraphModel>
  </diagram>
</mxfile>
